<?xml version="1.0" standalone="no"?>
<!DOCTYPE svg PUBLIC "-//W3C//DTD SVG 20010904//EN"
 "http://www.w3.org/TR/2001/REC-SVG-20010904/DTD/svg10.dtd">
<svg version="1.0" xmlns="http://www.w3.org/2000/svg"
 width="1171.000000pt" height="1280.000000pt" viewBox="0 0 1171.000000 1280.000000"
 preserveAspectRatio="xMidYMid meet">
<metadata>
Created by potrace 1.15, written by Peter Selinger 2001-2017
</metadata>
<g transform="translate(0.000000,1280.000000) scale(0.100000,-0.100000)"
fill="#000000" stroke="none">
<path d="M260 6510 l0 -6250 5695 0 5695 0 0 4688 0 4687 -248 270 c-136 149
-778 852 -1426 1563 l-1179 1292 -4269 0 -4268 0 0 -6250z"/>
<path d="M214 7355 c0 -181 2 -257 3 -168 2 89 2 237 0 330 -1 92 -3 20 -3
-162z"/>
<path d="M212 3618 l-2 -3408 5023 2 5022 3 -5017 2 -5018 3 -3 3403 -2 3402
-3 -3407z"/>
<path d="M638 243 c204 -2 540 -2 745 0 204 1 37 2 -373 2 -410 0 -577 -1
-372 -2z"/>
<path d="M1888 243 c7 -3 16 -2 19 1 4 3 -2 6 -13 5 -11 0 -14 -3 -6 -6z"/>
</g>
</svg>
